<svg width="617" height="104" viewBox="0 0 617 104" fill="none" xmlns="http://www.w3.org/2000/svg">
<path d="M195.756 26.1689L189.3 32.6385V35.8598H208.668V77.8307H221.58V35.8598H240.962V32.6385L234.492 26.1689H195.756Z" fill="#AA182C"/>
<path d="M305.13 35.8598V77.8172H347.087L356.778 68.1263V26.1689H314.821L305.13 35.8598ZM318.042 42.3158L324.498 35.8598H343.88V61.6839L337.41 68.1399H318.042V42.3158Z" fill="#AA182C"/>
<path d="M16.8281 32.625V42.3158L36.1962 61.6839H55.7267V68.1399H20.0494L16.8281 71.3746V77.8307H62.1827L68.6387 71.3746V61.6839L49.2707 42.3158H29.7402V35.8598H65.404L68.6387 32.625V26.1689H23.2842L16.8281 32.625Z" fill="#AA182C"/>
<path d="M144.014 26.1692L133.187 36.9969V71.4019L139.643 77.858H146.099V58.4628H171.923V77.8309H178.379L184.848 71.3749V36.9698L174.021 26.1421L144.014 26.1692ZM171.95 48.772H146.126V42.316L152.582 35.86H165.521L171.977 42.316L171.95 48.772Z" fill="#AA182C"/>
<path d="M113.845 26.1689V37.4704V48.7718H88.0077V37.4704V26.1689H81.5517L75.0957 32.625V71.3746L81.5517 77.8307H88.0077V69.8452V58.4626H113.845V61.6839V69.8452V77.8307H120.301L126.757 71.3746V32.625L120.301 26.1689H113.845Z" fill="#AA182C"/>
<path d="M247.417 26.1689V77.8307H260.329V32.6385L253.873 26.1689H247.417Z" fill="#AA182C"/>
<path d="M280.917 32.6385L274.461 26.1689H268.005V43.1414V68.1399V77.8307H293.829L298.674 72.9853V68.1399H280.917V32.6385Z" fill="#AA182C"/>
<path d="M414.908 26.1693H363.246V77.831H366.467L376.158 68.1402V58.4629H385.849L392.305 52.0069V48.7721H376.158V35.8601H401.996V77.8175H405.217L414.908 68.1267V58.4494H424.585L431.041 51.9934V48.7586H414.908V35.8466H431.041L437.511 29.3905V26.1558L414.908 26.1693Z" fill="#AA182C"/>
<path d="M453.659 68.1406H443.968V77.8314H453.659V68.1406Z" fill="#AA182C"/>
<path d="M580.79 35.8604L574.334 42.3164V68.1405H593.716L600.172 61.6845V35.8604H580.79Z" fill="#AA182C"/>
<path d="M489.175 35.8604H473.028V48.7724H489.175V35.8604Z" fill="#AA182C"/>
<path d="M552.733 32.625V47.662L541.946 58.4626L548.402 64.9186H552.733V69.2497V77.8307H561.423V35.8598L571.113 26.1689H546.277L552.733 32.625Z" fill="#AA182C"/>
<path d="M502.072 48.7718L492.394 58.4626H473.026V71.3746L466.557 77.8307H510.761V26.1689H502.072V48.7718Z" fill="#AA182C"/>
<path d="M523.688 58.4634V77.8315H543.056L533.365 68.1406L523.688 58.4634Z" fill="#AA182C"/>
<path d="M536.505 44.5631L539.821 41.2336V35.8604H523.688V48.7724H532.268L536.505 44.5631Z" fill="#AA182C"/>
</svg>
