<svg width="54" height="53" viewBox="0 0 54 53" fill="none" xmlns="http://www.w3.org/2000/svg">
<g clip-path="url(#clip0_924_5)">
<path d="M0.764893 25.3272C0.764893 13.3878 0.764893 7.41816 4.47397 3.70908C8.18305 0 14.1527 0 26.0921 0H28.2027C40.1421 0 46.1117 0 49.8208 3.70908C53.5299 7.41816 53.5299 13.3878 53.5299 25.3272V27.4378C53.5299 39.3772 53.5299 45.3468 49.8208 49.0559C46.1117 52.765 40.1421 52.765 28.2027 52.765H26.0921C14.1527 52.765 8.18305 52.765 4.47397 49.0559C0.764893 45.3468 0.764893 39.3772 0.764893 27.4378V25.3272Z" fill="url(#paint0_linear_924_5)"/>
<path d="M40.2678 41.3828C24.271 41.4055 12.1304 29.1194 12.1475 13.2625C12.1475 12.227 12.9869 11.3828 14.0225 11.3828H18.9713C19.9005 11.3828 20.6898 12.0656 20.8263 12.9847C21.1533 15.1876 21.7947 17.3321 22.7309 19.3529L22.9235 19.7688C23.1915 20.347 23.0099 21.0341 22.4912 21.4045C20.9586 22.4989 20.3729 24.702 21.5669 26.421C23.0652 28.5781 24.9538 30.4664 27.1105 31.964C28.8294 33.1576 31.0321 32.572 32.1265 31.0396C32.4972 30.5208 33.1846 30.3391 33.7632 30.6071L34.1772 30.7989C36.1981 31.735 38.3428 32.3764 40.5459 32.7034C41.465 32.8398 42.1475 33.6291 42.1475 34.5583V39.5078C42.1475 40.5433 41.306 41.3828 40.2704 41.3828L40.2678 41.3828Z" fill="white"/>
</g>
<defs>
<linearGradient id="paint0_linear_924_5" x1="27.1474" y1="0" x2="27.1474" y2="52.765" gradientUnits="userSpaceOnUse">
<stop offset="0.401042" stop-color="#AA182C"/>
<stop offset="1" stop-color="white"/>
</linearGradient>
<clipPath id="clip0_924_5">
<rect width="52.765" height="52.765" fill="white" transform="translate(0.764893)"/>
</clipPath>
</defs>
</svg>
