<svg width="54" height="53" viewBox="0 0 54 53" fill="none" xmlns="http://www.w3.org/2000/svg">
<g clip-path="url(#clip0_908_3)">
<path d="M0.589844 25.3272C0.589844 13.3878 0.589844 7.41816 4.29892 3.70908C8.00801 0 13.9776 0 25.917 0H28.0276C39.967 0 45.9366 0 49.6458 3.70908C53.3548 7.41816 53.3548 13.3878 53.3548 25.3272V27.4378C53.3548 39.3772 53.3548 45.3468 49.6458 49.0559C45.9366 52.765 39.967 52.765 28.0276 52.765H25.917C13.9776 52.765 8.00801 52.765 4.29892 49.0559C0.589844 45.3468 0.589844 39.3772 0.589844 27.4378V25.3272Z" fill="url(#paint0_linear_908_3)"/>
<path d="M28.5746 37.9904C16.3157 37.9904 9.32357 29.6716 9.03223 15.8291H15.1729C15.3746 25.9891 19.9015 30.2927 23.4873 31.1801V15.8291H29.2696V24.5916C32.8105 24.2145 36.5303 20.2214 37.7853 15.8291H43.5675C42.6038 21.2419 38.5698 25.2349 35.7012 26.8765C38.5698 28.2075 43.1643 31.6903 44.9124 37.9904H38.5474C37.1804 33.7755 33.7742 30.5146 29.2696 30.0709V37.9904H28.5746Z" fill="white"/>
</g>
<defs>
<linearGradient id="paint0_linear_908_3" x1="26.9723" y1="0" x2="26.9723" y2="52.765" gradientUnits="userSpaceOnUse">
<stop offset="0.401042" stop-color="#AA182C"/>
<stop offset="1" stop-color="white"/>
</linearGradient>
<clipPath id="clip0_908_3">
<rect width="52.765" height="52.765" fill="white" transform="translate(0.589844)"/>
</clipPath>
</defs>
</svg>
